<svg xmlns="http://www.w3.org/2000/svg" width="22" height="22" viewBox="0 0 22 22">
    <g fill="none" fill-rule="evenodd">
        <path fill="#4285F4" d="M17.967 9.375c0-.65-.059-1.275-.167-1.875H9.167v3.546H14.1c-.213 1.146-.858 2.117-1.83 2.767v2.3h2.963c1.734-1.596 2.734-3.946 2.734-6.738z" transform="translate(1.833 1.833)"/>
        <path fill="#34A853" d="M9.167 18.333c2.475 0 4.55-.82 6.066-2.22l-2.962-2.3c-.821.55-1.871.874-3.104.874-2.388 0-4.409-1.612-5.13-3.779H.975v2.375c1.508 2.996 4.608 5.05 8.192 5.05z" transform="translate(1.833 1.833)"/>
        <path fill="#FBBC05" d="M4.037 10.908c-.183-.55-.287-1.137-.287-1.741 0-.604.104-1.192.287-1.742V5.05H.975C.355 6.287 0 7.688 0 9.167s.354 2.879.975 4.116l3.062-2.375z" transform="translate(1.833 1.833)"/>
        <path fill="#EA4335" d="M9.167 3.646c1.345 0 2.554.462 3.504 1.37L15.3 2.389C13.712.908 11.637 0 9.167 0 5.583 0 2.483 2.054.975 5.05l3.062 2.375c.721-2.167 2.742-3.78 5.13-3.78z" transform="translate(1.833 1.833)"/>
        <path d="M0 0L18.333 0 18.333 18.333 0 18.333z" transform="translate(1.833 1.833)"/>
    </g>
</svg>
